# xmcd CD database file
#
# Track frame offsets:
#	183
#	20690
#	38593
#	60483
#	78940
#	91025
#	106703
#	124125
#	140698
#	157805
#	174585
#	188390
#	205460
#	222990
#	242063
#	262333
#	279390
#	298830
#
# Disc length: 4211 seconds
#
# Revision: 1
# Processed by: cddbd v1.5.1PL0 Copyright (c) Steve Scherf et al.
# Submitted via: CDex 1.51
#
DISCID=fc107112
DTITLE=Various Artist - Gefühle - Vol.13 - Die schönsten romantischen Schlager
DYEAR=1900
DGENRE=Oldies
TTITLE0=Udo Jürgens - Gib mir deine Angst
TTITLE1=Anne-Karin - Zum ersten Mal in meinem Leben
TTITLE2=Roger Whittaker - Albany
TTITLE3=Milva - Wieder mal
TTITLE4=Peter Alexander - Adeline
TTITLE5=Rex Gildo and Lena Valaitis - Sag nochmal ich liebe dich
TTITLE6=Peter Cornelius - Streicheleinheiten
TTITLE7=Nena - Nur geträumt
TTITLE8=Andy Borg - Die berühmten drei Worte
TTITLE9=Roland Kaiser - Dich zu lieben
TTITLE10=Mary Roos and David Hanselmann - Lady
TTITLE11=Andreas Martin - Amore mio
TTITLE12=Paola - Liebe ist nur ein Wort
TTITLE13=Hans Hartz - Die weißen Tauben sind müde
TTITLE14=Nicole - Papillon
TTITLE15=Nino de Angelo - Und ein Engel fliegt in der Nacht
TTITLE16=Jürgen Marcus - Engel der Nacht
TTITLE17=Karat - Über sieben Brücken
EXTD=
EXTT0=
EXTT1=
EXTT2=
EXTT3=
EXTT4=
EXTT5=
EXTT6=
EXTT7=
EXTT8=
EXTT9=
EXTT10=
EXTT11=
EXTT12=
EXTT13=
EXTT14=
EXTT15=
EXTT16=
EXTT17=
PLAYORDER=
